<svg xmlns="http://www.w3.org/2000/svg" height="24" width="24" style=""><rect id="backgroundrect" width="100%" height="100%" x="0" y="0" fill="none" stroke="none"/><g class="currentLayer" style=""><title>Layer 1</title><path d="M0,0 h24 v24 H0 z" fill="none" id="svg_1" class=""/><path d="M12.870000000000001,15.07 l-2.54,-2.51 l0.030000000000000006,-0.030000000000000006 c1.7400000000000002,-1.94 2.98,-4.17 3.71,-6.53 H17 V4 h-7 V2 H8 v2 H1 v1.99 h11.17 C11.5,7.92 10.44,9.75 9,11.35 C8.07,10.32 7.3,9.19 6.69,8 h-2 c0.7300000000000001,1.6300000000000001 1.73,3.17 2.98,4.5600000000000005 l-5.09,5.02 L4,19 l5,-5 l3.11,3.11 l0.7600000000000001,-2.04 zM18.5,10 h-2 L12,22 h2 l1.12,-3 h4.75 L21,22 h2 l-4.5,-12 zm-2.62,7 l1.62,-4.33 L19.12,17 h-3.24 z" id="svg_2" class="" fill="#ffffff" fill-opacity="1"/></g></svg>